<mxfile host="app.diagrams.net" modified="2023-01-09T17:28:38.618Z" agent="5.0 (Windows)" etag="L6rNEti-Ls9Oj0toclc-" version="20.8.3" type="github">
  <diagram id="ZXvqH0MlAdmIT3FwRpjf" name="Page-1">
    <mxGraphModel dx="1908" dy="566" grid="1" gridSize="10" guides="1" tooltips="1" connect="1" arrows="1" fold="1" page="1" pageScale="1" pageWidth="850" pageHeight="1100" math="0" shadow="0">
      <root>
        <mxCell id="0" />
        <mxCell id="1" parent="0" />
        <mxCell id="DmoJbmKdrY1FPeq_1Mu5-1" value="&lt;i&gt;&lt;b&gt;user_id&lt;/b&gt;&lt;/i&gt;" style="ellipse;whiteSpace=wrap;html=1;labelBackgroundColor=none;fillColor=#006600;strokeColor=#FFFF00;fontColor=#FEFAE0;" vertex="1" parent="1">
          <mxGeometry x="30" y="70" width="100" height="60" as="geometry" />
        </mxCell>
        <mxCell id="DmoJbmKdrY1FPeq_1Mu5-2" value="&lt;h2&gt;&lt;font size=&quot;3&quot;&gt;&lt;font face=&quot;Times New Roman&quot;&gt;User&lt;/font&gt;&lt;/font&gt;&lt;br&gt;&lt;/h2&gt;" style="rounded=0;whiteSpace=wrap;html=1;labelBackgroundColor=none;fillColor=#BC6C25;strokeColor=#1A1A1A;fontColor=#FEFAE0;align=center;" vertex="1" parent="1">
          <mxGeometry x="160" y="210" width="120" height="60" as="geometry" />
        </mxCell>
        <mxCell id="DmoJbmKdrY1FPeq_1Mu5-3" value="" style="endArrow=none;html=1;rounded=0;strokeColor=#DDA15E;fontColor=#FEFAE0;fillColor=#BC6C25;entryX=0.5;entryY=1;entryDx=0;entryDy=0;" edge="1" parent="1" source="DmoJbmKdrY1FPeq_1Mu5-2" target="DmoJbmKdrY1FPeq_1Mu5-1">
          <mxGeometry width="50" height="50" relative="1" as="geometry">
            <mxPoint x="400" y="320" as="sourcePoint" />
            <mxPoint x="450" y="270" as="targetPoint" />
          </mxGeometry>
        </mxCell>
        <mxCell id="DmoJbmKdrY1FPeq_1Mu5-4" value="name" style="ellipse;whiteSpace=wrap;html=1;labelBackgroundColor=none;fillColor=#BC6C25;strokeColor=#DDA15E;fontColor=#FEFAE0;" vertex="1" parent="1">
          <mxGeometry x="110" y="30" width="100" height="60" as="geometry" />
        </mxCell>
        <mxCell id="DmoJbmKdrY1FPeq_1Mu5-5" value="" style="endArrow=none;html=1;rounded=0;strokeColor=#DDA15E;fontColor=#FEFAE0;fillColor=#BC6C25;entryX=0.5;entryY=1;entryDx=0;entryDy=0;exitX=0.25;exitY=0;exitDx=0;exitDy=0;" edge="1" target="DmoJbmKdrY1FPeq_1Mu5-4" parent="1" source="DmoJbmKdrY1FPeq_1Mu5-2">
          <mxGeometry width="50" height="50" relative="1" as="geometry">
            <mxPoint x="301.81818181818176" y="190" as="sourcePoint" />
            <mxPoint x="570" y="250" as="targetPoint" />
          </mxGeometry>
        </mxCell>
        <mxCell id="DmoJbmKdrY1FPeq_1Mu5-6" value="password" style="ellipse;whiteSpace=wrap;html=1;labelBackgroundColor=none;fillColor=#BC6C25;strokeColor=#DDA15E;fontColor=#FEFAE0;" vertex="1" parent="1">
          <mxGeometry x="280" y="30" width="100" height="60" as="geometry" />
        </mxCell>
        <mxCell id="DmoJbmKdrY1FPeq_1Mu5-7" value="" style="endArrow=none;html=1;rounded=0;strokeColor=#DDA15E;fontColor=#FEFAE0;fillColor=#BC6C25;entryX=0.4;entryY=1;entryDx=0;entryDy=0;entryPerimeter=0;" edge="1" target="DmoJbmKdrY1FPeq_1Mu5-6" parent="1">
          <mxGeometry width="50" height="50" relative="1" as="geometry">
            <mxPoint x="230" y="210" as="sourcePoint" />
            <mxPoint x="740" y="250" as="targetPoint" />
          </mxGeometry>
        </mxCell>
        <mxCell id="DmoJbmKdrY1FPeq_1Mu5-8" value="&lt;div&gt;email &lt;br&gt;&lt;/div&gt;&lt;div&gt;(username)&lt;/div&gt;" style="ellipse;whiteSpace=wrap;html=1;labelBackgroundColor=none;fillColor=#BC6C25;strokeColor=#DDA15E;fontColor=#FEFAE0;" vertex="1" parent="1">
          <mxGeometry x="190" y="70" width="100" height="60" as="geometry" />
        </mxCell>
        <mxCell id="DmoJbmKdrY1FPeq_1Mu5-9" value="" style="endArrow=none;html=1;rounded=0;strokeColor=#DDA15E;fontColor=#FEFAE0;fillColor=#BC6C25;entryX=0.5;entryY=1;entryDx=0;entryDy=0;exitX=0.5;exitY=0;exitDx=0;exitDy=0;" edge="1" target="DmoJbmKdrY1FPeq_1Mu5-8" parent="1" source="DmoJbmKdrY1FPeq_1Mu5-2">
          <mxGeometry width="50" height="50" relative="1" as="geometry">
            <mxPoint x="250" y="210" as="sourcePoint" />
            <mxPoint x="640" y="290" as="targetPoint" />
          </mxGeometry>
        </mxCell>
        <mxCell id="DmoJbmKdrY1FPeq_1Mu5-10" value="about" style="ellipse;whiteSpace=wrap;html=1;labelBackgroundColor=none;fillColor=#BC6C25;strokeColor=#DDA15E;fontColor=#FEFAE0;" vertex="1" parent="1">
          <mxGeometry x="300" y="100" width="100" height="60" as="geometry" />
        </mxCell>
        <mxCell id="DmoJbmKdrY1FPeq_1Mu5-11" value="" style="endArrow=none;html=1;rounded=0;strokeColor=#DDA15E;fontColor=#FEFAE0;fillColor=#BC6C25;exitX=0.75;exitY=0;exitDx=0;exitDy=0;entryX=0;entryY=1;entryDx=0;entryDy=0;" edge="1" target="DmoJbmKdrY1FPeq_1Mu5-10" parent="1" source="DmoJbmKdrY1FPeq_1Mu5-2">
          <mxGeometry width="50" height="50" relative="1" as="geometry">
            <mxPoint x="460" y="240" as="sourcePoint" />
            <mxPoint x="320" y="150" as="targetPoint" />
          </mxGeometry>
        </mxCell>
        <mxCell id="DmoJbmKdrY1FPeq_1Mu5-12" value="&lt;i&gt;&lt;b&gt;post_id&lt;/b&gt;&lt;/i&gt;" style="ellipse;whiteSpace=wrap;html=1;labelBackgroundColor=none;fillColor=#006600;strokeColor=#FFFF00;fontColor=#FEFAE0;" vertex="1" parent="1">
          <mxGeometry x="420" y="115" width="100" height="60" as="geometry" />
        </mxCell>
        <mxCell id="DmoJbmKdrY1FPeq_1Mu5-13" value="&lt;h2&gt;&lt;font face=&quot;Times New Roman&quot;&gt;Post&lt;/font&gt;&lt;br&gt;&lt;/h2&gt;" style="rounded=0;whiteSpace=wrap;html=1;labelBackgroundColor=none;fillColor=#BC6C25;strokeColor=#1A1A1A;fontColor=#FEFAE0;align=center;" vertex="1" parent="1">
          <mxGeometry x="560" y="210" width="120" height="60" as="geometry" />
        </mxCell>
        <mxCell id="DmoJbmKdrY1FPeq_1Mu5-14" value="" style="endArrow=none;html=1;rounded=0;strokeColor=#DDA15E;fontColor=#FEFAE0;fillColor=#BC6C25;entryX=1;entryY=1;entryDx=0;entryDy=0;" edge="1" source="DmoJbmKdrY1FPeq_1Mu5-13" target="DmoJbmKdrY1FPeq_1Mu5-12" parent="1">
          <mxGeometry width="50" height="50" relative="1" as="geometry">
            <mxPoint x="800" y="320" as="sourcePoint" />
            <mxPoint x="480" y="130" as="targetPoint" />
          </mxGeometry>
        </mxCell>
        <mxCell id="DmoJbmKdrY1FPeq_1Mu5-15" value="title" style="ellipse;whiteSpace=wrap;html=1;labelBackgroundColor=none;fillColor=#BC6C25;strokeColor=#DDA15E;fontColor=#FEFAE0;" vertex="1" parent="1">
          <mxGeometry x="460" y="40" width="100" height="60" as="geometry" />
        </mxCell>
        <mxCell id="DmoJbmKdrY1FPeq_1Mu5-16" value="" style="endArrow=none;html=1;rounded=0;strokeColor=#DDA15E;fontColor=#FEFAE0;fillColor=#BC6C25;entryX=0.5;entryY=1;entryDx=0;entryDy=0;exitX=0.25;exitY=0;exitDx=0;exitDy=0;" edge="1" source="DmoJbmKdrY1FPeq_1Mu5-13" target="DmoJbmKdrY1FPeq_1Mu5-15" parent="1">
          <mxGeometry width="50" height="50" relative="1" as="geometry">
            <mxPoint x="701.8181818181818" y="190" as="sourcePoint" />
            <mxPoint x="970" y="250" as="targetPoint" />
          </mxGeometry>
        </mxCell>
        <mxCell id="DmoJbmKdrY1FPeq_1Mu5-17" value="image" style="ellipse;whiteSpace=wrap;html=1;labelBackgroundColor=none;fillColor=#BC6C25;strokeColor=#DDA15E;fontColor=#FEFAE0;" vertex="1" parent="1">
          <mxGeometry x="610" y="30" width="100" height="60" as="geometry" />
        </mxCell>
        <mxCell id="DmoJbmKdrY1FPeq_1Mu5-18" value="" style="endArrow=none;html=1;rounded=0;strokeColor=#DDA15E;fontColor=#FEFAE0;fillColor=#BC6C25;entryX=0.4;entryY=1;entryDx=0;entryDy=0;entryPerimeter=0;" edge="1" target="DmoJbmKdrY1FPeq_1Mu5-17" parent="1">
          <mxGeometry width="50" height="50" relative="1" as="geometry">
            <mxPoint x="630" y="210" as="sourcePoint" />
            <mxPoint x="1140" y="250" as="targetPoint" />
          </mxGeometry>
        </mxCell>
        <mxCell id="DmoJbmKdrY1FPeq_1Mu5-19" value="content" style="ellipse;whiteSpace=wrap;html=1;labelBackgroundColor=none;fillColor=#BC6C25;strokeColor=#DDA15E;fontColor=#FEFAE0;" vertex="1" parent="1">
          <mxGeometry x="540" y="90" width="100" height="60" as="geometry" />
        </mxCell>
        <mxCell id="DmoJbmKdrY1FPeq_1Mu5-20" value="" style="endArrow=none;html=1;rounded=0;strokeColor=#DDA15E;fontColor=#FEFAE0;fillColor=#BC6C25;entryX=0.5;entryY=1;entryDx=0;entryDy=0;exitX=0.5;exitY=0;exitDx=0;exitDy=0;" edge="1" source="DmoJbmKdrY1FPeq_1Mu5-13" target="DmoJbmKdrY1FPeq_1Mu5-19" parent="1">
          <mxGeometry width="50" height="50" relative="1" as="geometry">
            <mxPoint x="650" y="210" as="sourcePoint" />
            <mxPoint x="1040" y="290" as="targetPoint" />
          </mxGeometry>
        </mxCell>
        <mxCell id="DmoJbmKdrY1FPeq_1Mu5-21" value="&lt;u&gt;&lt;i&gt;&lt;b&gt;user_id&lt;/b&gt;&lt;/i&gt;&lt;/u&gt;" style="ellipse;whiteSpace=wrap;html=1;labelBackgroundColor=none;fillColor=#660033;strokeColor=#FFFF00;fontColor=#FEFAE0;" vertex="1" parent="1">
          <mxGeometry x="710" y="115" width="100" height="60" as="geometry" />
        </mxCell>
        <mxCell id="DmoJbmKdrY1FPeq_1Mu5-22" value="" style="endArrow=none;html=1;rounded=0;strokeColor=#DDA15E;fontColor=#FEFAE0;fillColor=#BC6C25;exitX=0.75;exitY=0;exitDx=0;exitDy=0;entryX=0;entryY=1;entryDx=0;entryDy=0;" edge="1" source="DmoJbmKdrY1FPeq_1Mu5-13" target="DmoJbmKdrY1FPeq_1Mu5-21" parent="1">
          <mxGeometry width="50" height="50" relative="1" as="geometry">
            <mxPoint x="860" y="240" as="sourcePoint" />
            <mxPoint x="720" y="150" as="targetPoint" />
          </mxGeometry>
        </mxCell>
        <mxCell id="DmoJbmKdrY1FPeq_1Mu5-23" value="&lt;h3&gt;&lt;font style=&quot;font-size: 18px;&quot;&gt;&lt;span style=&quot;background-color: rgb(0, 76, 153);&quot;&gt;&lt;font style=&quot;font-size: 14px;&quot;&gt;&lt;font color=&quot;#fff&quot;&gt;creates&lt;/font&gt;&lt;/font&gt;&lt;/span&gt;&lt;/font&gt;&lt;/h3&gt;" style="rhombus;whiteSpace=wrap;html=1;fontFamily=Times New Roman;fontSize=18;fillColor=#fff2cc;strokeColor=#007FFF;gradientColor=#ffd966;" vertex="1" parent="1">
          <mxGeometry x="385" y="280" width="80" height="80" as="geometry" />
        </mxCell>
        <mxCell id="DmoJbmKdrY1FPeq_1Mu5-25" value="" style="endArrow=none;html=1;rounded=0;strokeColor=#66B2FF;fontColor=#FEFAE0;fillColor=#BC6C25;exitX=1;exitY=0.5;exitDx=0;exitDy=0;entryX=0;entryY=0.5;entryDx=0;entryDy=0;" edge="1" parent="1" source="DmoJbmKdrY1FPeq_1Mu5-2" target="DmoJbmKdrY1FPeq_1Mu5-23">
          <mxGeometry width="50" height="50" relative="1" as="geometry">
            <mxPoint x="250" y="210" as="sourcePoint" />
            <mxPoint x="420" y="240" as="targetPoint" />
            <Array as="points" />
          </mxGeometry>
        </mxCell>
        <mxCell id="DmoJbmKdrY1FPeq_1Mu5-28" value="" style="endArrow=none;html=1;rounded=0;strokeColor=#66B2FF;fontFamily=Times New Roman;fontSize=18;fontColor=#FFFFFF;fillColor=#BC6C25;entryX=0;entryY=0.5;entryDx=0;entryDy=0;exitX=1;exitY=0.5;exitDx=0;exitDy=0;entryPerimeter=0;" edge="1" parent="1" source="DmoJbmKdrY1FPeq_1Mu5-23" target="DmoJbmKdrY1FPeq_1Mu5-13">
          <mxGeometry width="50" height="50" relative="1" as="geometry">
            <mxPoint x="400" y="320" as="sourcePoint" />
            <mxPoint x="450" y="270" as="targetPoint" />
          </mxGeometry>
        </mxCell>
        <mxCell id="DmoJbmKdrY1FPeq_1Mu5-29" value="1" style="text;html=1;align=center;verticalAlign=middle;resizable=0;points=[];autosize=1;strokeColor=none;fillColor=none;fontSize=18;fontFamily=Times New Roman;fontColor=#FFFFFF;" vertex="1" parent="1">
          <mxGeometry x="350" y="260" width="30" height="40" as="geometry" />
        </mxCell>
        <mxCell id="DmoJbmKdrY1FPeq_1Mu5-30" value="N" style="text;html=1;align=center;verticalAlign=middle;resizable=0;points=[];autosize=1;strokeColor=none;fillColor=none;fontSize=18;fontFamily=Times New Roman;fontColor=#FFFFFF;" vertex="1" parent="1">
          <mxGeometry x="465" y="260" width="40" height="40" as="geometry" />
        </mxCell>
        <mxCell id="DmoJbmKdrY1FPeq_1Mu5-40" value="&lt;h2&gt;&lt;font face=&quot;Times New Roman&quot;&gt;Comment&lt;/font&gt;&lt;/h2&gt;" style="rounded=0;whiteSpace=wrap;html=1;labelBackgroundColor=none;fillColor=#BC6C25;strokeColor=#1A1A1A;fontColor=#FEFAE0;align=center;" vertex="1" parent="1">
          <mxGeometry x="360" y="570" width="120" height="60" as="geometry" />
        </mxCell>
        <mxCell id="DmoJbmKdrY1FPeq_1Mu5-41" value="&lt;i&gt;&lt;b&gt;comment_id&lt;/b&gt;&lt;/i&gt;" style="ellipse;whiteSpace=wrap;html=1;labelBackgroundColor=none;fillColor=#006600;strokeColor=#FFFF00;fontColor=#FEFAE0;" vertex="1" parent="1">
          <mxGeometry x="250" y="430" width="100" height="60" as="geometry" />
        </mxCell>
        <mxCell id="DmoJbmKdrY1FPeq_1Mu5-42" value="" style="endArrow=none;html=1;rounded=0;strokeColor=#DDA15E;fontColor=#FEFAE0;fillColor=#BC6C25;exitX=0.25;exitY=0;exitDx=0;exitDy=0;entryX=0.5;entryY=1;entryDx=0;entryDy=0;" edge="1" source="DmoJbmKdrY1FPeq_1Mu5-40" target="DmoJbmKdrY1FPeq_1Mu5-41" parent="1">
          <mxGeometry width="50" height="50" relative="1" as="geometry">
            <mxPoint x="501.81818181818176" y="550" as="sourcePoint" />
            <mxPoint x="320" y="480" as="targetPoint" />
          </mxGeometry>
        </mxCell>
        <mxCell id="DmoJbmKdrY1FPeq_1Mu5-43" value="&lt;u&gt;&lt;i&gt;&lt;b&gt;post_id&lt;/b&gt;&lt;/i&gt;&lt;/u&gt;" style="ellipse;whiteSpace=wrap;html=1;labelBackgroundColor=none;fillColor=#660033;strokeColor=#FFFF00;fontColor=#FEFAE0;" vertex="1" parent="1">
          <mxGeometry x="450" y="420" width="100" height="60" as="geometry" />
        </mxCell>
        <mxCell id="DmoJbmKdrY1FPeq_1Mu5-44" value="" style="endArrow=none;html=1;rounded=0;strokeColor=#DDA15E;fontColor=#FEFAE0;fillColor=#BC6C25;entryX=0.4;entryY=1;entryDx=0;entryDy=0;entryPerimeter=0;" edge="1" target="DmoJbmKdrY1FPeq_1Mu5-43" parent="1">
          <mxGeometry width="50" height="50" relative="1" as="geometry">
            <mxPoint x="430" y="570" as="sourcePoint" />
            <mxPoint x="940" y="610" as="targetPoint" />
          </mxGeometry>
        </mxCell>
        <mxCell id="DmoJbmKdrY1FPeq_1Mu5-45" value="comment" style="ellipse;whiteSpace=wrap;html=1;labelBackgroundColor=none;fillColor=#BC6C25;strokeColor=#DDA15E;fontColor=#FEFAE0;" vertex="1" parent="1">
          <mxGeometry x="350" y="400" width="100" height="60" as="geometry" />
        </mxCell>
        <mxCell id="DmoJbmKdrY1FPeq_1Mu5-46" value="" style="endArrow=none;html=1;rounded=0;strokeColor=#DDA15E;fontColor=#FEFAE0;fillColor=#BC6C25;entryX=0.5;entryY=1;entryDx=0;entryDy=0;exitX=0.5;exitY=0;exitDx=0;exitDy=0;" edge="1" source="DmoJbmKdrY1FPeq_1Mu5-40" target="DmoJbmKdrY1FPeq_1Mu5-45" parent="1">
          <mxGeometry width="50" height="50" relative="1" as="geometry">
            <mxPoint x="450" y="570" as="sourcePoint" />
            <mxPoint x="840" y="650" as="targetPoint" />
          </mxGeometry>
        </mxCell>
        <mxCell id="DmoJbmKdrY1FPeq_1Mu5-47" value="&lt;u&gt;&lt;i&gt;&lt;b&gt;user_id&lt;/b&gt;&lt;/i&gt;&lt;/u&gt;" style="ellipse;whiteSpace=wrap;html=1;labelBackgroundColor=none;fillColor=#660033;strokeColor=#FFFF00;fontColor=#FEFAE0;" vertex="1" parent="1">
          <mxGeometry x="490" y="480" width="100" height="60" as="geometry" />
        </mxCell>
        <mxCell id="DmoJbmKdrY1FPeq_1Mu5-48" value="" style="endArrow=none;html=1;rounded=0;strokeColor=#DDA15E;fontColor=#FEFAE0;fillColor=#BC6C25;exitX=0.75;exitY=0;exitDx=0;exitDy=0;entryX=0;entryY=1;entryDx=0;entryDy=0;" edge="1" source="DmoJbmKdrY1FPeq_1Mu5-40" target="DmoJbmKdrY1FPeq_1Mu5-47" parent="1">
          <mxGeometry width="50" height="50" relative="1" as="geometry">
            <mxPoint x="660" y="600" as="sourcePoint" />
            <mxPoint x="520" y="510" as="targetPoint" />
          </mxGeometry>
        </mxCell>
        <mxCell id="DmoJbmKdrY1FPeq_1Mu5-60" value="&lt;h3&gt;&lt;font style=&quot;font-size: 18px;&quot;&gt;&lt;span style=&quot;background-color: rgb(0, 76, 153);&quot;&gt;&lt;font style=&quot;font-size: 14px;&quot; color=&quot;#FFFFFF&quot;&gt;Can do&lt;/font&gt;&lt;/span&gt;&lt;/font&gt;&lt;/h3&gt;" style="rhombus;whiteSpace=wrap;html=1;fontFamily=Times New Roman;fontSize=18;fillColor=#fff2cc;strokeColor=#007FFF;gradientColor=#ffd966;" vertex="1" parent="1">
          <mxGeometry x="80" y="400" width="80" height="80" as="geometry" />
        </mxCell>
        <mxCell id="DmoJbmKdrY1FPeq_1Mu5-63" value="" style="endArrow=none;html=1;rounded=0;strokeColor=#66B2FF;fontFamily=Times New Roman;fontSize=18;fontColor=#FFFFFF;fillColor=#BC6C25;exitX=0.5;exitY=1;exitDx=0;exitDy=0;entryX=0;entryY=0.5;entryDx=0;entryDy=0;" edge="1" parent="1" source="DmoJbmKdrY1FPeq_1Mu5-60" target="DmoJbmKdrY1FPeq_1Mu5-40">
          <mxGeometry width="50" height="50" relative="1" as="geometry">
            <mxPoint x="400" y="480" as="sourcePoint" />
            <mxPoint x="450" y="440" as="targetPoint" />
          </mxGeometry>
        </mxCell>
        <mxCell id="DmoJbmKdrY1FPeq_1Mu5-64" value="" style="endArrow=none;html=1;rounded=0;strokeColor=#66B2FF;fontFamily=Times New Roman;fontSize=18;fontColor=#FFFFFF;fillColor=#BC6C25;entryX=0.5;entryY=1;entryDx=0;entryDy=0;exitX=0.5;exitY=0;exitDx=0;exitDy=0;" edge="1" parent="1" source="DmoJbmKdrY1FPeq_1Mu5-60" target="DmoJbmKdrY1FPeq_1Mu5-2">
          <mxGeometry width="50" height="50" relative="1" as="geometry">
            <mxPoint x="400" y="480" as="sourcePoint" />
            <mxPoint x="450" y="430" as="targetPoint" />
          </mxGeometry>
        </mxCell>
        <mxCell id="DmoJbmKdrY1FPeq_1Mu5-65" value="1" style="text;html=1;align=center;verticalAlign=middle;resizable=0;points=[];autosize=1;strokeColor=none;fillColor=none;fontSize=18;fontFamily=Times New Roman;fontColor=#FFFFFF;" vertex="1" parent="1">
          <mxGeometry x="150" y="350" width="30" height="40" as="geometry" />
        </mxCell>
        <mxCell id="DmoJbmKdrY1FPeq_1Mu5-66" value="N" style="text;html=1;align=center;verticalAlign=middle;resizable=0;points=[];autosize=1;strokeColor=none;fillColor=none;fontSize=18;fontFamily=Times New Roman;fontColor=#FFFFFF;" vertex="1" parent="1">
          <mxGeometry x="150" y="470" width="40" height="40" as="geometry" />
        </mxCell>
        <mxCell id="DmoJbmKdrY1FPeq_1Mu5-67" value="&lt;h4&gt;&lt;span style=&quot;background-color: rgb(0, 76, 153);&quot;&gt;&lt;font color=&quot;#FFFFFF&quot;&gt;&lt;font style=&quot;font-size: 14px;&quot;&gt;Can have&lt;/font&gt;&lt;/font&gt;&lt;/span&gt;&lt;/h4&gt;" style="rhombus;whiteSpace=wrap;html=1;fontFamily=Times New Roman;fontSize=18;fillColor=#fff2cc;strokeColor=#007FFF;gradientColor=#ffd966;" vertex="1" parent="1">
          <mxGeometry x="660" y="400" width="80" height="80" as="geometry" />
        </mxCell>
        <mxCell id="DmoJbmKdrY1FPeq_1Mu5-68" value="" style="endArrow=none;html=1;rounded=0;strokeColor=#66B2FF;fontFamily=Times New Roman;fontSize=18;fontColor=#FFFFFF;fillColor=#BC6C25;entryX=0.5;entryY=1;entryDx=0;entryDy=0;exitX=0.5;exitY=0;exitDx=0;exitDy=0;" edge="1" source="DmoJbmKdrY1FPeq_1Mu5-67" parent="1" target="DmoJbmKdrY1FPeq_1Mu5-13">
          <mxGeometry width="50" height="50" relative="1" as="geometry">
            <mxPoint x="550" y="460" as="sourcePoint" />
            <mxPoint x="710" y="380" as="targetPoint" />
          </mxGeometry>
        </mxCell>
        <mxCell id="DmoJbmKdrY1FPeq_1Mu5-69" value="1" style="text;html=1;align=center;verticalAlign=middle;resizable=0;points=[];autosize=1;strokeColor=none;fillColor=none;fontSize=18;fontFamily=Times New Roman;fontColor=#FFFFFF;" vertex="1" parent="1">
          <mxGeometry x="640" y="350" width="30" height="40" as="geometry" />
        </mxCell>
        <mxCell id="DmoJbmKdrY1FPeq_1Mu5-70" value="N" style="text;html=1;align=center;verticalAlign=middle;resizable=0;points=[];autosize=1;strokeColor=none;fillColor=none;fontSize=18;fontFamily=Times New Roman;fontColor=#FFFFFF;" vertex="1" parent="1">
          <mxGeometry x="630" y="470" width="40" height="40" as="geometry" />
        </mxCell>
        <mxCell id="DmoJbmKdrY1FPeq_1Mu5-71" value="" style="endArrow=none;html=1;rounded=0;strokeColor=#66B2FF;fontColor=#FEFAE0;fillColor=#BC6C25;exitX=1;exitY=0.5;exitDx=0;exitDy=0;entryX=0.5;entryY=1;entryDx=0;entryDy=0;" edge="1" target="DmoJbmKdrY1FPeq_1Mu5-67" parent="1" source="DmoJbmKdrY1FPeq_1Mu5-40">
          <mxGeometry width="50" height="50" relative="1" as="geometry">
            <mxPoint x="570" y="375" as="sourcePoint" />
            <mxPoint x="710" y="375" as="targetPoint" />
            <Array as="points" />
          </mxGeometry>
        </mxCell>
        <mxCell id="DmoJbmKdrY1FPeq_1Mu5-73" value="&lt;i&gt;&lt;b&gt;Category_id&lt;/b&gt;&lt;/i&gt;" style="ellipse;whiteSpace=wrap;html=1;labelBackgroundColor=none;fillColor=#006600;strokeColor=#FFFF00;fontColor=#FEFAE0;" vertex="1" parent="1">
          <mxGeometry x="860" y="55" width="100" height="60" as="geometry" />
        </mxCell>
        <mxCell id="DmoJbmKdrY1FPeq_1Mu5-74" value="title" style="ellipse;whiteSpace=wrap;html=1;labelBackgroundColor=none;fillColor=#BC6C25;strokeColor=#DDA15E;fontColor=#FEFAE0;" vertex="1" parent="1">
          <mxGeometry x="980" y="55" width="100" height="60" as="geometry" />
        </mxCell>
        <mxCell id="DmoJbmKdrY1FPeq_1Mu5-75" value="" style="endArrow=none;html=1;rounded=0;strokeColor=#DDA15E;fontColor=#FEFAE0;fillColor=#BC6C25;entryX=0.5;entryY=1;entryDx=0;entryDy=0;exitX=0.5;exitY=0;exitDx=0;exitDy=0;" edge="1" source="DmoJbmKdrY1FPeq_1Mu5-77" target="DmoJbmKdrY1FPeq_1Mu5-74" parent="1">
          <mxGeometry width="50" height="50" relative="1" as="geometry">
            <mxPoint x="1060" y="210" as="sourcePoint" />
            <mxPoint x="1450" y="290" as="targetPoint" />
          </mxGeometry>
        </mxCell>
        <mxCell id="DmoJbmKdrY1FPeq_1Mu5-76" value="" style="endArrow=none;html=1;rounded=0;strokeColor=#DDA15E;fontColor=#FEFAE0;fillColor=#BC6C25;exitX=0.5;exitY=0;exitDx=0;exitDy=0;entryX=0.5;entryY=1;entryDx=0;entryDy=0;" edge="1" source="DmoJbmKdrY1FPeq_1Mu5-77" target="DmoJbmKdrY1FPeq_1Mu5-73" parent="1">
          <mxGeometry width="50" height="50" relative="1" as="geometry">
            <mxPoint x="1111.8181818181818" y="190" as="sourcePoint" />
            <mxPoint x="930" y="120" as="targetPoint" />
          </mxGeometry>
        </mxCell>
        <mxCell id="DmoJbmKdrY1FPeq_1Mu5-77" value="&lt;h2&gt;&lt;font style=&quot;font-size: 18px;&quot; face=&quot;Times New Roman&quot;&gt;Category&lt;/font&gt;&lt;/h2&gt;" style="rounded=0;whiteSpace=wrap;html=1;labelBackgroundColor=none;fillColor=#BC6C25;strokeColor=#1A1A1A;fontColor=#FEFAE0;align=center;" vertex="1" parent="1">
          <mxGeometry x="930" y="210" width="120" height="60" as="geometry" />
        </mxCell>
        <mxCell id="DmoJbmKdrY1FPeq_1Mu5-78" value="" style="endArrow=none;html=1;rounded=0;strokeColor=#66B2FF;fontColor=#FEFAE0;fillColor=#BC6C25;exitX=1;exitY=1;exitDx=0;exitDy=0;entryX=0;entryY=0.5;entryDx=0;entryDy=0;" edge="1" target="DmoJbmKdrY1FPeq_1Mu5-80" parent="1" source="DmoJbmKdrY1FPeq_1Mu5-13">
          <mxGeometry width="50" height="50" relative="1" as="geometry">
            <mxPoint x="660" y="240" as="sourcePoint" />
            <mxPoint x="800" y="240" as="targetPoint" />
            <Array as="points" />
          </mxGeometry>
        </mxCell>
        <mxCell id="DmoJbmKdrY1FPeq_1Mu5-79" value="N" style="text;html=1;align=center;verticalAlign=middle;resizable=0;points=[];autosize=1;strokeColor=none;fillColor=none;fontSize=18;fontFamily=Times New Roman;fontColor=#FFFFFF;" vertex="1" parent="1">
          <mxGeometry x="730" y="260" width="40" height="40" as="geometry" />
        </mxCell>
        <mxCell id="DmoJbmKdrY1FPeq_1Mu5-80" value="&lt;h3&gt;&lt;font style=&quot;font-size: 14px;&quot;&gt;&lt;span style=&quot;background-color: rgb(0, 76, 153);&quot;&gt;&lt;font color=&quot;#FFFFFF&quot;&gt;have&lt;/font&gt;&lt;/span&gt;&lt;/font&gt;&lt;/h3&gt;" style="rhombus;whiteSpace=wrap;html=1;fontFamily=Times New Roman;fontSize=18;fillColor=#fff2cc;strokeColor=#007FFF;gradientColor=#ffd966;" vertex="1" parent="1">
          <mxGeometry x="780" y="280" width="80" height="80" as="geometry" />
        </mxCell>
        <mxCell id="DmoJbmKdrY1FPeq_1Mu5-81" value="1" style="text;html=1;align=center;verticalAlign=middle;resizable=0;points=[];autosize=1;strokeColor=none;fillColor=none;fontSize=18;fontFamily=Times New Roman;fontColor=#FFFFFF;" vertex="1" parent="1">
          <mxGeometry x="880" y="260" width="30" height="40" as="geometry" />
        </mxCell>
        <mxCell id="DmoJbmKdrY1FPeq_1Mu5-82" value="" style="endArrow=none;html=1;rounded=0;strokeColor=#66B2FF;fontFamily=Times New Roman;fontSize=18;fontColor=#FFFFFF;fillColor=#BC6C25;exitX=1;exitY=0.5;exitDx=0;exitDy=0;" edge="1" source="DmoJbmKdrY1FPeq_1Mu5-80" parent="1">
          <mxGeometry width="50" height="50" relative="1" as="geometry">
            <mxPoint x="875" y="320" as="sourcePoint" />
            <mxPoint x="930" y="270" as="targetPoint" />
          </mxGeometry>
        </mxCell>
        <mxCell id="DmoJbmKdrY1FPeq_1Mu5-84" value="&lt;u&gt;&lt;i&gt;&lt;b&gt;category_id&lt;/b&gt;&lt;/i&gt;&lt;/u&gt;" style="ellipse;whiteSpace=wrap;html=1;labelBackgroundColor=none;fillColor=#660033;strokeColor=#FFFF00;fontColor=#FEFAE0;" vertex="1" parent="1">
          <mxGeometry x="720" y="30" width="100" height="60" as="geometry" />
        </mxCell>
        <mxCell id="DmoJbmKdrY1FPeq_1Mu5-85" value="" style="endArrow=none;html=1;rounded=0;strokeColor=#DDA15E;fontColor=#FEFAE0;fillColor=#BC6C25;entryX=0;entryY=1;entryDx=0;entryDy=0;exitX=0.65;exitY=0.033;exitDx=0;exitDy=0;exitPerimeter=0;" edge="1" target="DmoJbmKdrY1FPeq_1Mu5-84" parent="1" source="DmoJbmKdrY1FPeq_1Mu5-13">
          <mxGeometry width="50" height="50" relative="1" as="geometry">
            <mxPoint x="740" y="240" as="sourcePoint" />
            <mxPoint x="1250" y="280" as="targetPoint" />
          </mxGeometry>
        </mxCell>
        <mxCell id="DmoJbmKdrY1FPeq_1Mu5-91" value="&lt;i&gt;&lt;b&gt;role_id&lt;/b&gt;&lt;/i&gt;" style="ellipse;whiteSpace=wrap;html=1;labelBackgroundColor=none;fillColor=#006600;strokeColor=#FFFF00;fontColor=#FEFAE0;" vertex="1" parent="1">
          <mxGeometry x="-270" y="55" width="100" height="60" as="geometry" />
        </mxCell>
        <mxCell id="DmoJbmKdrY1FPeq_1Mu5-92" value="role_name" style="ellipse;whiteSpace=wrap;html=1;labelBackgroundColor=none;fillColor=#BC6C25;strokeColor=#DDA15E;fontColor=#FEFAE0;" vertex="1" parent="1">
          <mxGeometry x="-150" y="55" width="100" height="60" as="geometry" />
        </mxCell>
        <mxCell id="DmoJbmKdrY1FPeq_1Mu5-93" value="" style="endArrow=none;html=1;rounded=0;strokeColor=#DDA15E;fontColor=#FEFAE0;fillColor=#BC6C25;entryX=0.5;entryY=1;entryDx=0;entryDy=0;exitX=0.5;exitY=0;exitDx=0;exitDy=0;" edge="1" source="DmoJbmKdrY1FPeq_1Mu5-95" target="DmoJbmKdrY1FPeq_1Mu5-92" parent="1">
          <mxGeometry width="50" height="50" relative="1" as="geometry">
            <mxPoint x="-70" y="210" as="sourcePoint" />
            <mxPoint x="320" y="290" as="targetPoint" />
          </mxGeometry>
        </mxCell>
        <mxCell id="DmoJbmKdrY1FPeq_1Mu5-94" value="" style="endArrow=none;html=1;rounded=0;strokeColor=#DDA15E;fontColor=#FEFAE0;fillColor=#BC6C25;exitX=0.5;exitY=0;exitDx=0;exitDy=0;entryX=0.5;entryY=1;entryDx=0;entryDy=0;" edge="1" source="DmoJbmKdrY1FPeq_1Mu5-95" target="DmoJbmKdrY1FPeq_1Mu5-91" parent="1">
          <mxGeometry width="50" height="50" relative="1" as="geometry">
            <mxPoint x="-18.181818181818244" y="190" as="sourcePoint" />
            <mxPoint x="-200" y="120" as="targetPoint" />
          </mxGeometry>
        </mxCell>
        <mxCell id="DmoJbmKdrY1FPeq_1Mu5-95" value="&lt;h2&gt;&lt;font face=&quot;Times New Roman&quot;&gt;Role&lt;/font&gt;&lt;br&gt;&lt;/h2&gt;" style="rounded=0;whiteSpace=wrap;html=1;labelBackgroundColor=none;fillColor=#BC6C25;strokeColor=#1A1A1A;fontColor=#FEFAE0;align=center;" vertex="1" parent="1">
          <mxGeometry x="-240" y="210" width="120" height="60" as="geometry" />
        </mxCell>
        <mxCell id="DmoJbmKdrY1FPeq_1Mu5-96" value="N" style="text;html=1;align=center;verticalAlign=middle;resizable=0;points=[];autosize=1;strokeColor=none;fillColor=none;fontSize=18;fontFamily=Times New Roman;fontColor=#FFFFFF;" vertex="1" parent="1">
          <mxGeometry x="60" y="260" width="40" height="40" as="geometry" />
        </mxCell>
        <mxCell id="DmoJbmKdrY1FPeq_1Mu5-97" value="" style="endArrow=none;html=1;rounded=0;strokeColor=#66B2FF;fontFamily=Times New Roman;fontSize=18;fontColor=#FFFFFF;fillColor=#BC6C25;entryX=0;entryY=0.5;entryDx=0;entryDy=0;exitX=1;exitY=0.5;exitDx=0;exitDy=0;" edge="1" source="DmoJbmKdrY1FPeq_1Mu5-98" parent="1" target="DmoJbmKdrY1FPeq_1Mu5-2">
          <mxGeometry width="50" height="50" relative="1" as="geometry">
            <mxPoint x="20" y="320" as="sourcePoint" />
            <mxPoint x="180" y="240" as="targetPoint" />
          </mxGeometry>
        </mxCell>
        <mxCell id="DmoJbmKdrY1FPeq_1Mu5-98" value="&lt;h3&gt;&lt;font style=&quot;font-size: 18px;&quot;&gt;&lt;span style=&quot;background-color: rgb(0, 76, 153);&quot;&gt;&lt;font style=&quot;font-size: 14px;&quot;&gt;&lt;font color=&quot;#fff&quot;&gt;creates&lt;/font&gt;&lt;/font&gt;&lt;/span&gt;&lt;/font&gt;&lt;/h3&gt;" style="rhombus;whiteSpace=wrap;html=1;fontFamily=Times New Roman;fontSize=18;fillColor=#fff2cc;strokeColor=#007FFF;gradientColor=#ffd966;" vertex="1" parent="1">
          <mxGeometry x="-20" y="280" width="80" height="80" as="geometry" />
        </mxCell>
        <mxCell id="DmoJbmKdrY1FPeq_1Mu5-99" value="N" style="text;html=1;align=center;verticalAlign=middle;resizable=0;points=[];autosize=1;strokeColor=none;fillColor=none;fontSize=18;fontFamily=Times New Roman;fontColor=#FFFFFF;" vertex="1" parent="1">
          <mxGeometry x="-60" y="260" width="40" height="40" as="geometry" />
        </mxCell>
        <mxCell id="DmoJbmKdrY1FPeq_1Mu5-100" value="" style="endArrow=none;html=1;rounded=0;strokeColor=#66B2FF;fontColor=#FEFAE0;fillColor=#BC6C25;exitX=1;exitY=0.5;exitDx=0;exitDy=0;entryX=0;entryY=0.5;entryDx=0;entryDy=0;" edge="1" target="DmoJbmKdrY1FPeq_1Mu5-98" parent="1" source="DmoJbmKdrY1FPeq_1Mu5-95">
          <mxGeometry width="50" height="50" relative="1" as="geometry">
            <mxPoint x="-100" y="240" as="sourcePoint" />
            <mxPoint x="40" y="240" as="targetPoint" />
            <Array as="points" />
          </mxGeometry>
        </mxCell>
      </root>
    </mxGraphModel>
  </diagram>
</mxfile>
